<svg xmlns="http://www.w3.org/2000/svg" xmlns:xlink="http://www.w3.org/1999/xlink" viewBox="0 0 16 15" version="1.1" x="0px" y="0px"><title>use-inventory</title><desc>Created with Sketch.</desc><g stroke="none" stroke-width="1" fill="none" fill-rule="evenodd"><path d="M0.762268674,5.70200306 L2.09026867,5.70200306 C2.57526867,9.09100306 5.49426867,11.7060031 9.01726867,11.7060031 C11.8852687,11.7060031 14.3522687,10.0460031 15.4332687,7.55300306 C15.6812687,6.97900306 15.3112687,6.32100306 14.6982687,6.19900306 C14.2382687,6.10700306 13.7782687,6.35000306 13.5952687,6.78200306 C12.8282687,8.58800306 11.0742687,9.70600306 9.02326867,9.70600306 C6.60626867,9.70600306 4.57726867,7.98400306 4.11226867,5.70200306 L5.29926867,5.70200306 C5.90426867,5.70200306 6.15626867,5.22300306 6.03126867,4.70200306 L3.61126867,0.416003065 C3.23926867,-0.109996935 2.74326867,-0.110996935 2.45026867,0.266003065 L0.0312686739,4.70200306 C-0.0937313261,5.11900306 0.157268674,5.70200306 0.762268674,5.70200306" fill="#000000"/></g><text x="0" y="27" fill="#000000" font-size="5px" font-weight="bold" font-family="'Helvetica Neue', Helvetica, Arial-Unicode, Arial, Sans-serif">Created by Kevin White</text><text x="0" y="32" fill="#000000" font-size="5px" font-weight="bold" font-family="'Helvetica Neue', Helvetica, Arial-Unicode, Arial, Sans-serif">from the Noun Project</text></svg>